<?xml version="1.0" encoding="utf-8"?>
<!-- Generator: Adobe Illustrator 23.0.2, SVG Export Plug-In . SVG Version: 6.00 Build 0)  -->
<svg version="1.1" id="Layer_1" xmlns="http://www.w3.org/2000/svg" xmlns:xlink="http://www.w3.org/1999/xlink" x="0px" y="0px"
	 viewBox="0 0 3939 1721" style="enable-background:new 0 0 3939 1721;" xml:space="preserve">
<style type="text/css">
	.st0{fill:#2E5CA9;}
	.st1{fill:#FFFFFF;}
	.st2{fill:#424041;}
	.st3{fill:#F69221;}
	.st4{fill:none;stroke:#FFFFFF;stroke-width:3;stroke-miterlimit:10;}
	.st5{font-family:'Corbel-Bold';}
	.st6{font-size:236px;}
</style>
<g>
	<path class="st4" d="M81.15,1678.82c0-79.32,0-158.15,0-236.43c0.73-0.8,0.93-1.09,1.19-1.28c0.26-0.18,0.6-0.33,0.91-0.36
		c2.31-0.23,4.62-0.61,6.93-0.61c1238.87,0.04,2477.75,0.1,3716.62,0.2c0.96,0,1.92,0.45,2.83,0.68
		c2.14,7.08,2.72,225.29,0.66,237.33c-0.22,0.25-0.41,0.55-0.67,0.74c-0.26,0.19-0.6,0.32-0.92,0.38c-1.3,0.25-2.61,0.67-3.91,0.67
		c-1237.88,0.05-2475.75,0.08-3713.63,0.1c-2,0-4-0.09-5.98-0.29C84.22,1679.84,83.28,1679.42,81.15,1678.82z"/>
	<g>
		<path class="st1" d="M286.27,1273.3c-23.87,0-47.33,0-71.27,0c0-4.86,0-8.39,0-11.87c7.35-1.96,76.09-2.5,89.01-0.7
			c3.03,8.13,0.84,16.46-0.81,24.35c-6.5,31.23-23.63,54.51-54.68,64.48c-31.46,10.1-60.76,4.62-85.47-18.18
			c-16.39-15.12-24.33-34.82-26.29-56.74c-1.81-20.29,1.19-39.85,11.4-57.9c17.15-30.32,50.51-46.24,85.34-41.3
			c28.94,4.11,50.08,18.59,62.8,45.03c0.96,2.01,1.42,4.26,2.26,6.84c-6.59,0-12.5,0-18.51,0c-0.97-1.63-1.84-3.02-2.64-4.45
			c-13.36-23.7-34.28-34.02-60.71-32.29c-28.75,1.88-48.58,17.22-58.28,44.33c-7.44,20.79-6.82,41.94,1.31,62.56
			c11.35,28.78,39.47,44.57,71.64,40.59c28.58-3.54,51.2-26.84,54.88-56.63C286.51,1279.2,286.27,1276.9,286.27,1273.3z"/>
		<path class="st1" d="M1072.45,1261.32c2.68,1.37,4.71,2.36,6.71,3.43c18.15,9.67,26.09,25.06,24.62,45.26
			c-1.35,18.44-11.28,30.98-28.33,37.56c-5.81,2.24-12.2,3.96-18.36,4.11c-20.97,0.49-41.95,0.19-62.93,0.15
			c-0.95,0-1.9-0.4-2.77-0.6c-2.03-7.28-2.72-159.67-0.82-173.35c0.53-0.38,1.07-1.1,1.6-1.09c23.26,0.39,46.68-0.67,69.75,1.67
			c27.3,2.76,41.84,24.09,37.55,51.15c-1.83,11.51-8.02,20.27-17.79,26.5C1078.93,1257.84,1076.02,1259.31,1072.45,1261.32z
			 M1006.51,1337.51c16.78,0,32.93,0.07,49.09-0.07c2.6-0.02,5.26-0.82,7.78-1.63c11.84-3.84,20.31-11.06,23.06-23.74
			c4.61-21.27-7.77-39.79-29.75-42.16c-15.44-1.67-31.14-0.95-46.73-1.17c-1.16-0.02-2.33,0.94-3.45,1.42
			C1006.51,1292.62,1006.51,1314.73,1006.51,1337.51z M1007.09,1191.81c-2.16,13.25-1.64,55.22,0.73,62.4
			c14.81,0,29.76,0.04,44.7-0.05c1.96-0.01,3.94-0.54,5.87-1.02c17.36-4.24,25.17-14.96,24.39-33.45
			c-0.63-15.09-10.92-26.47-27.44-27.65C1039.49,1190.92,1023.5,1191.81,1007.09,1191.81z"/>
		<path class="st1" d="M753.67,1353.94c-43.81-0.12-78.17-31.04-83.59-74.57c-2.76-22.2-0.1-43.35,11-62.8
			c16.13-28.27,41.53-42.03,73.51-41.9c32.46,0.14,58.27,14.4,73.37,43.64c16.4,31.77,15.71,64.35-1.81,95.67
			C811.62,1339.96,784.99,1354.02,753.67,1353.94z M746.32,1338.88c30.97,0.09,50.28-9.78,62.72-28.27
			c17.21-25.59,17.3-66.36,0.2-92.01c-25.02-37.53-82.38-39.09-108.42-2.22c-18.17,25.74-19.17,54.35-7.46,82.83
			C704.2,1325.56,725.31,1338.24,746.32,1338.88z"/>
		<path class="st1" d="M2442.79,1176.41c12.78,0,25.03-0.2,37.28,0.06c9.63,0.21,19.36,0.24,28.86,1.65
			c36.05,5.35,54.33,41.59,37.67,74.06c-5.58,10.88-14.38,18.15-25.81,22.31c-3.08,1.12-6.16,2.24-10.54,3.84
			c14.41,24.45,28.48,48.29,43.14,73.16c-7.54,0-13.43,0-20.09,0c-6.74-11.54-13.62-23.27-20.46-35.02
			c-6.2-10.65-12.53-21.23-18.44-32.04c-2.38-4.36-5.39-6.23-10.33-6.06c-7.91,0.27-15.83,0.07-24.73,0.07c0,24.9,0,48.43,0,72.71
			c-5.82,0-10.63,0-15.55,0C2441.62,1344.23,2440.64,1202.39,2442.79,1176.41z M2459.8,1264.63c15.97,0.3,31.3,1.62,46.35-1.07
			c18.69-3.34,28.76-16.92,28.61-36.48c-0.15-19.11-9.62-31.61-27.83-34.68c-15.4-2.6-31.02-0.87-47.13-1.06
			C2459.8,1216.04,2459.8,1239.56,2459.8,1264.63z"/>
		<path class="st1" d="M3314.92,1227.44c-6.99,0-12.62,0-18.73,0c-1.28-2.11-2.76-4.27-3.96-6.59
			c-21.1-40.81-87.07-42.86-111.3-0.51c-15.65,27.36-16.04,56.18-1.98,84.24c11.24,22.43,30.73,33.65,55.79,34.18
			c24.81,0.52,44.78-8.66,57.57-30.9c0.99-1.72,1.99-3.43,3.22-5.55c5.84,0,11.73,0,19.02,0c-1.53,3.77-2.46,6.86-3.97,9.64
			c-14.49,26.66-37.63,39.64-67.28,41.67c-54.55,3.72-92.02-37.06-91.06-90.6c0.59-33.12,12.99-60.44,42.54-77.7
			c35.74-20.88,94.81-12.99,116.81,33.59C3312.7,1221.27,3313.5,1223.77,3314.92,1227.44z"/>
		<path class="st1" d="M1386.41,1351.58c-6.46,0-11.39,0-17.2,0c-3.95-10.82-7.89-21.69-11.89-32.54
			c-3.11-8.45-3.14-8.54-12.02-8.57c-20.33-0.07-40.65-0.07-60.98,0c-8.46,0.03-8.53,0.12-11.43,7.94
			c-4.03,10.88-7.94,21.81-12.02,33.03c-5.59,0-10.81,0-17.09,0c0.96-3.34,1.59-6.15,2.56-8.84
			c18.64-51.66,37.29-103.31,56.07-154.92c1.08-2.97,2.78-7.44,4.95-7.94c5.02-1.17,10.64-0.99,15.74,0.03
			c1.91,0.38,3.47,4.49,4.45,7.17c8.9,24.39,17.62,48.85,26.42,73.28c9.7,26.93,19.46,53.84,29.15,80.77
			C1384.22,1344.08,1385.07,1347.25,1386.41,1351.58z M1349.11,1295.99c-11.46-31.79-21.8-62.23-34.28-92.18
			c-11.72,30.57-23.23,60.71-33.64,92.18C1304.3,1295.99,1325.8,1295.99,1349.11,1295.99z"/>
		<path class="st1" d="M2046.24,1216.77c-6.38,0-11.6,0-16.81,0c-0.61-1.05-1.26-1.85-1.56-2.76
			c-8.98-26.59-41.58-29.02-58.55-19.65c-20.44,11.29-21.63,39.85-1.54,51.64c7.63,4.48,16.48,6.96,24.92,9.94
			c8.77,3.09,17.95,5.11,26.55,8.59c20.77,8.39,29.01,21.25,28.61,43.14c-0.36,19.22-12.1,35.61-31.08,42.23
			c-20.18,7.04-40.14,6.01-58.84-4.64c-13.82-7.87-21.53-20.07-22.56-36.93c6.06,0,11.26,0,16.18,0c0.7,0.86,1.36,1.31,1.48,1.87
			c6.47,31.32,43.26,35.23,62.63,23.69c10.22-6.09,15.22-15.25,15.2-27.4c-0.01-11.96-5.16-20.92-15.6-25.8
			c-9.58-4.48-19.95-7.26-29.96-10.81c-8.76-3.1-17.81-5.58-26.2-9.47c-29.49-13.68-28.46-55.38-7.53-72.65
			c9.96-8.22,21.53-11.87,33.97-12.95c14.6-1.26,28.66,1.13,41.07,9.45C2037.92,1191.82,2044.6,1202.32,2046.24,1216.77z"/>
		<path class="st1" d="M3815.01,1216.18c-0.83,0.31-1.71,0.91-2.61,0.93c-4.31,0.1-8.62,0.05-13.31,0.05
			c-1.09-2.13-2.23-4.09-3.12-6.16c-11.26-26.38-48.71-26.38-63.99-11.88c-11.81,11.21-13.33,36.14,3.8,45.97
			c8.25,4.74,17.6,7.67,26.63,10.93c8.75,3.16,17.91,5.21,26.55,8.6c17.72,6.95,28.17,19.6,28.55,39.3
			c0.4,20.4-8.69,35.64-26.97,44.04c-21.6,9.93-43.56,8.66-64.18-3.31c-13.13-7.62-20.4-19.61-21.76-35.94c5.77,0,11.19,0,16.9,0
			c0.48,1.01,1.28,2.14,1.56,3.39c6.67,29.7,45.12,33.83,64.53,20.25c17.25-12.06,18.03-40.81-1.91-51.07
			c-7.62-3.92-15.94-6.54-24.06-9.4c-10.02-3.52-20.44-6.04-30.23-10.1c-15.44-6.4-24.16-18.19-25.25-35.24
			c-1.18-18.49,5.05-33.34,21.16-43.27c23.57-14.53,59.18-10.79,76.82,7.91C3811.07,1198.55,3814.36,1206.07,3815.01,1216.18z"/>
		<path class="st1" d="M3468.76,1176.9c29.47,0,58.34,0,87.98,0c0,3.94,0,7.75,0,13.05c-11.43,1.05-23.32,0.34-35.15,0.47
			c-11.6,0.13-23.2,0.03-35.74,0.03c-1.27,22.22-0.42,43.35-0.6,65.8c21.77,0,42.89,0,64.42,0c0,5.49,0,9.66,0,14.95
			c-21.41,0-42.24,0-63.76,0c0,22.57,0,44.03,0,66.82c23.68,0,47.14,0,71.08,0c0,5.12,0,8.93,0,13.33c-29.37,0-58.25,0-87.15,0
			C3467.62,1344.22,3466.62,1202.29,3468.76,1176.9z"/>
		<path class="st1" d="M2200.6,1351.25c0-58.58,0-116.09,0-174.22c29.57,0,58.67,0,88.3,0c0.23,1.89,0.57,3.46,0.58,5.04
			c0.01,2.27-0.24,4.53-0.46,8.26c-23.78,0-47.22,0-71.22,0c0,22.62,0,43.75,0,65.95c21.29,0,42.1,0,63.48,0c0,5.24,0,9.42,0,14.76
			c-20.94,0-41.75,0-63.31,0c0,22.59,0,44.05,0,66.79c23.44,0.88,46.93-0.14,70.94,0.6c0,4.52,0,8.32,0,12.82
			C2259.58,1351.25,2230.49,1351.25,2200.6,1351.25z"/>
		<path class="st1" d="M2767.57,1329.76c18.5-50.9,37.01-101.8,55.59-152.91c5.69,0,10.9,0,17.73,0
			c-21.79,58.8-43.25,116.68-64.75,174.69c-6.96,0-13.2,0-20.09,0c-21.5-58.01-42.97-115.92-64.76-174.69c6.75,0,11.99,0,18.22,0
			c18.35,50.88,36.78,101.99,55.21,153.1C2765.67,1329.88,2766.62,1329.82,2767.57,1329.76z"/>
		<path class="st1" d="M456.15,1176.87c4.75,0,9.6,0,15.43,0c0,53.51,0,106.65,0,161.08c10.68,0.91,20.55,0.35,30.38,0.45
			c9.96,0.1,19.93,0.02,30.73,0.02c0,4.3,0,8.08,0,13.02c-25.11,1.1-50.59,0.22-75.84,0.53
			C454.34,1344.37,453.84,1187.89,456.15,1176.87z"/>
		<path class="st1" d="M1549.87,1338.43c21.23,0,41.07,0,61.43,0c0,4.77,0,8.56,0,12.93c-25.61,0-50.76,0-75.84,0
			c-2.13-7.32-2.93-157.89-0.88-174.17c4.64,0,9.38,0,15.29,0c0,26.7,0,53.23,0,79.77
			C1549.87,1283.55,1549.87,1310.13,1549.87,1338.43z"/>
		<path class="st1" d="M2986.37,1351.03c0-58.23,0-115.93,0-174.12c2.21-0.2,3.8-0.43,5.39-0.47c2.95-0.07,5.9-0.02,8.65-0.02
			c2.3,7.85,3.19,155.06,1.14,174.6C2996.92,1351.03,2992.17,1351.03,2986.37,1351.03z"/>
	</g>
	<path class="st1" d="M780.83,861.56c2.03,120.45,78.95,170.04,168.02,170.04c63.77,0,102.23-11.13,135.63-25.3l15.18,63.76
		c-31.38,14.17-85.02,30.36-162.96,30.36c-150.81,0-240.89-99.19-240.89-246.97s87.05-264.17,229.76-264.17
		c159.92,0,202.43,140.69,202.43,230.77c0,18.22-2.03,32.39-3.04,41.5H780.83z M1041.97,797.79
		c1.01-56.68-23.28-144.74-123.49-144.74c-90.08,0-129.56,83-136.64,144.74H1041.97z"/>
	<path class="st1" d="M1276.79,600.42l69.84,105.55c18.22,27.4,33.4,52.78,49.6,80.18h3.04c16.2-29.43,32.39-54.8,48.59-81.19
		l68.83-104.54h96.16L1445.82,837.9l172.07,253.73h-101.22L1444.81,981c-19.23-28.42-35.42-55.82-52.63-85.25h-2.02
		c-16.19,29.43-33.4,55.82-51.62,85.25l-70.85,110.63h-98.18l174.09-250.68L1177.6,600.42H1276.79z"/>
	<path class="st1" d="M1946.82,1088.29c-17.18,7.09-44.52,12.1-78.94,12.1c-41.51,0-74.92-13.11-96.18-37.43
		c-25.27-26.33-34.42-69.85-34.42-127.53v-534.1l87.09-23.26v554.35c0,60.69,17.18,95.12,66.78,95.12c23.26,0,40.5-3.01,51.6-6.08
		L1946.82,1088.29z"/>
	<g>
		<path class="st1" d="M3033.42,1091.94V600.07h319.44v79.94h-227.28v116.28h165.51v78.62h-165.51v133.12h237.19v83.91H3033.42z"/>
		<path class="st1" d="M3436.77,1091.94V600.07h98.76l141.39,247.09c10.79,19.16,20.81,38.54,30.06,58.14
			c9.24,19.6,17.72,39.42,25.43,59.46c-2.42-14.53-4.18-30.11-5.28-46.74c-1.11-16.63-1.66-34.41-1.66-53.35v-264.6h85.89v491.87
			h-85.89l-153.61-253.7c-8.37-14.31-17.23-31.49-26.59-51.53c-9.37-20.03-18.99-42.28-28.91-66.73c2.2,13.44,3.8,28.19,4.79,44.27
			c0.99,16.08,1.48,34.69,1.48,55.83v271.87H3436.77z"/>
	</g>
	<path class="st1" d="M2250.07,472.61c118.68,0,226.4-24.55,305.65-64.48c-65.06,19.81-140.68,31.17-221.37,31.17
		c-83.09,0-160.8-12.04-227.14-32.95c73.16-124.86,208.71-208.72,363.88-208.72c40.5,0,79.66,5.73,116.73,16.39
		c-56.64-27.06-120.06-42.22-187.02-42.22c-155.57,0-292.01,81.8-368.73,204.71c-11.19,17.93-21.11,36.73-29.63,56.28
		c-18.43,42.29-30.32,88.07-34.41,136.09c-95.55-22.13-202.54-57.18-318.26-111.31v94.64c88.87,34.02,198.66,67.33,317.7,83.84
		c3.26,47.91,14.27,93.69,31.81,136.09c6.77,16.36,14.51,32.21,23.15,47.49c74.56,131.88,216.06,220.92,378.37,220.92
		c11.93,0,23.74-0.5,35.43-1.44c-144.83-11.86-268.91-96.94-335.18-218.15c108.78-3.18,207.02-27,280.68-64.1
		c-65.06,19.81-140.68,31.17-221.37,31.17c-26.28,0-52.02-1.21-77.03-3.52c-18.54-43.4-29.97-90.55-32.92-139.99
		c128.72,8.38,264.67-5.8,394.38-61.19c0,0-150.39,43.16-393.82,2.14c3.62-45.82,14.54-89.59,31.64-130.12
		C2134.25,466.47,2190.79,472.61,2250.07,472.61z"/>
	<path class="st1" d="M2874.6,648.94c-238.72,149.37-438.36,160.32-438.36,160.32c202.53,33.04,341.85-27.18,415.04-73.84
		c-72.29,197.39-261.85,338.24-484.29,338.24c-73.2,0-142.84-15.22-205.88-42.76c77.01,45.85,167.04,72.19,263.2,72.19
		c273.84,0,497.71-213.45,514.53-483c0.31-4.89,0.55-9.8,0.71-14.73C2917.67,621.06,2895.98,635.56,2874.6,648.94z"/>
	<path class="st1" d="M2884.29,351.69c-84.99-167.97-259.18-283.13-460.3-283.13c-89.86,0-174.34,23.01-247.9,63.43
		c55.79-20.67,116.12-31.98,179.09-31.98c201.9,0,376.66,116.07,461.28,285.11c9.84,19.66,18.46,40.03,25.77,61.03
		c21.66-13.92,47.09-30.7,64.44-43.53C2900.1,385.18,2892.63,368.18,2884.29,351.69z"/>
	<g>
		<path class="st1" d="M669.83,1109.65H477.48L242.61,827.8v281.85h-92.69V698.3c0,0,9.53-62.85,62.85-28.58l297.1,361.86h85.69
			L669.83,1109.65z"/>
		<path class="st1" d="M598.72,611.41v350.26c0,0-9.5,62.86-62.83,28.56L238.8,628.4h-85.69l-74.29-78.1h192.35l234.9,281.88V611.41
			H598.72z"/>
	</g>
	<text transform="matrix(1 0 0 1 164.8446 1636.375)" class="st1 st5 st6">FUTURE OF DIGITAL INNOVATION</text>
</g>
</svg>
